<svg xmlns="http://www.w3.org/2000/svg" width="70" height="71" viewBox="0 0 70 71" fill="none">
  <mask id="mask0_11873_2950" style="mask-type:alpha" maskUnits="userSpaceOnUse" x="0" y="0" width="70" height="71">
    <rect y="0.286133" width="70" height="70" fill="#D9D9D9"/>
  </mask>
  <g mask="url(#mask0_11873_2950)">
    <path d="M33.3517 61.4356H36.369V56.8091C39.118 56.675 41.8503 55.7196 44.5658 53.9427C47.2813 52.1659 48.6391 49.3666 48.6391 45.5448C48.6391 42.7287 47.7675 40.3819 46.0242 38.5045C44.2809 36.6271 40.9954 34.8168 36.1678 33.0735C31.6084 31.4643 28.7588 30.0898 27.619 28.9499C26.4791 27.8101 25.9092 26.1674 25.9092 24.0218C25.9092 21.8762 26.7641 20.0658 28.4739 18.5907C30.1836 17.1156 32.413 16.3781 35.1621 16.3781C37.1736 16.3781 38.8834 16.8307 40.2914 17.7358C41.6994 18.641 42.8728 19.7976 43.8115 21.2057L46.4265 20.1999C45.4207 18.3896 44.0294 16.8977 42.2526 15.7244C40.4758 14.551 38.5816 13.8972 36.5701 13.7631V9.13671H33.5529V13.7631C29.9993 14.2995 27.334 15.5567 25.5572 17.5347C23.7804 19.5127 22.892 21.675 22.892 24.0218C22.892 26.8379 23.7971 29.084 25.6075 30.7603C27.4178 32.4365 30.5357 34.0792 34.9609 35.6884C39.3192 37.2976 42.2191 38.756 43.6607 40.0634C45.1022 41.3709 45.823 43.198 45.823 45.5448C45.823 48.562 44.7167 50.7244 42.504 52.0318C40.2914 53.3393 37.9782 53.993 35.5644 53.993C33.2176 53.993 31.0888 53.3225 29.1779 51.9815C27.267 50.6405 25.7081 48.7631 24.5012 46.3494L21.8862 47.5563C23.0931 50.1712 24.652 52.1827 26.563 53.5907C28.4739 54.9988 30.7368 56.0045 33.3517 56.608V61.4356ZM34.9609 70.2861C30.1334 70.2861 25.5907 69.3642 21.3331 67.5203C17.0754 65.6765 13.3709 63.1789 10.2196 60.0275C7.06822 56.8762 4.57061 53.1717 2.72674 48.914C0.882872 44.6563 -0.0390625 40.1137 -0.0390625 35.2861C-0.0390625 30.4585 0.882872 25.9159 2.72674 21.6583C4.57061 17.4006 7.06822 13.6961 10.2196 10.5448C13.3709 7.39341 17.0754 4.89581 21.3331 3.05194C25.5907 1.20807 30.1334 0.286133 34.9609 0.286133C39.7885 0.286133 44.3312 1.20807 48.5888 3.05194C52.8465 4.89581 56.551 7.39341 59.7023 10.5448C62.8537 13.6961 65.3513 17.4006 67.1951 21.6583C69.039 25.9159 69.9609 30.4585 69.9609 35.2861C69.9609 40.1137 69.039 44.6563 67.1951 48.914C65.3513 53.1717 62.8537 56.8762 59.7023 60.0275C56.551 63.1789 52.8465 65.6765 48.5888 67.5203C44.3312 69.3642 39.7885 70.2861 34.9609 70.2861ZM34.9609 67.47C43.9456 67.47 51.5558 64.3522 57.7914 58.1166C64.027 51.881 67.1449 44.2708 67.1449 35.2861C67.1449 26.3015 64.027 18.6913 57.7914 12.4557C51.5558 6.22004 43.9456 3.10222 34.9609 3.10222C25.9763 3.10222 18.3661 6.22004 12.1305 12.4557C5.89485 18.6913 2.77703 26.3015 2.77703 35.2861C2.77703 44.2708 5.89485 51.881 12.1305 58.1166C18.3661 64.3522 25.9763 67.47 34.9609 67.47Z" fill="#585858"/>
  </g>
</svg>