<svg width="63" height="79" viewBox="0 0 63 79" fill="none" xmlns="http://www.w3.org/2000/svg">
<path d="M55.802 58.7675C58.2713 60.5208 59.5713 62.5096 59.5713 64.5341C59.5713 66.5586 58.2713 68.5474 55.802 70.3006C53.3326 72.0539 49.7809 73.5098 45.5039 74.522C41.2269 75.5343 36.3752 76.0672 31.4365 76.0672C26.4979 76.0672 21.6462 75.5343 17.3691 74.522C13.0921 73.5098 9.54045 72.0539 7.0711 70.3006C4.60176 68.5474 3.30176 66.5586 3.30176 64.5341C3.30176 62.5096 4.60176 60.5208 7.0711 58.7675" stroke="#216900" stroke-width="5.71725" stroke-linecap="round"/>
<path d="M56.26 31.8567C56.26 52.4198 35.6191 65.8484 31.9799 68.0562C31.6383 68.2634 31.232 68.2634 30.8904 68.0562C27.2512 65.8484 6.61035 52.4198 6.61035 31.8567C6.61035 14.557 18.6388 3.02393 31.4352 3.02393C44.675 3.02393 56.26 14.557 56.26 31.8567Z" stroke="#216900" stroke-width="5.71725"/>
<path d="M41.8174 31.857C41.8174 39.1874 36.7831 44.3758 31.4362 44.3758C26.0893 44.3758 21.0549 39.1874 21.0549 31.857C21.0549 24.5265 26.0893 19.3381 31.4362 19.3381C36.7831 19.3381 41.8174 24.5265 41.8174 31.857Z" stroke="#216900" stroke-width="5.71725"/>
</svg>
