<svg width="74" height="68" viewBox="0 0 74 68" fill="none" xmlns="http://www.w3.org/2000/svg">
<path d="M44.7533 5.68652H29.2235C23.7425 5.68652 22.5245 8.23465 21.8241 11.3773L19.3271 22.4757H54.6497L52.1527 11.3773C51.4523 8.23465 50.2343 5.68652 44.7533 5.68652Z" stroke="#216900" stroke-width="5.93165" stroke-linecap="round" stroke-linejoin="round"/>
<path d="M59.0338 40.5677C59.2774 42.9742 57.2067 45.0411 54.5576 45.0411H50.4163C48.0412 45.0411 47.7062 44.1068 47.2799 42.9176L46.8231 41.7001C46.2141 40.0296 45.8183 38.8972 42.621 38.8972H31.3239C28.157 38.8972 27.6698 40.1712 27.1217 41.7001L26.665 42.9176C26.2387 44.0784 25.9037 45.0411 23.5286 45.0411H19.3873C16.7381 45.0411 14.6675 42.9742 14.9111 40.5677L16.1596 28.0537C16.4641 24.9677 17.1035 22.4478 22.8891 22.4478H51.0557C56.8413 22.4478 57.4808 24.9677 57.7853 28.0537L59.0338 40.5677Z" stroke="#216900" stroke-width="5.93165" stroke-linecap="round" stroke-linejoin="round"/>
<path d="M19.3274 16.3037H17.1045" stroke="#216900" stroke-width="5.93165" stroke-linecap="round" stroke-linejoin="round"/>
<path d="M56.8723 16.3037H54.6494" stroke="#216900" stroke-width="5.93165" stroke-linecap="round" stroke-linejoin="round"/>
<path d="M23.7412 30.6865H30.349" stroke="#216900" stroke-width="5.93165" stroke-linecap="round" stroke-linejoin="round"/>
<path d="M43.627 30.6865H50.2347" stroke="#216900" stroke-width="5.93165" stroke-linecap="round" stroke-linejoin="round"/>
<path d="M36.9873 48.1548V50.986" stroke="#216900" stroke-width="5.93165" stroke-linecap="round" stroke-linejoin="round"/>
<path d="M36.9873 59.4795V62.3107" stroke="#216900" stroke-width="5.93165" stroke-linecap="round" stroke-linejoin="round"/>
<path d="M9.58215 50.9863L6.53711 62.3112" stroke="#216900" stroke-width="5.93165" stroke-linecap="round" stroke-linejoin="round"/>
<path d="M64.3936 50.9863L67.4386 62.3112" stroke="#216900" stroke-width="5.93165" stroke-linecap="round" stroke-linejoin="round"/>
</svg>
