<svg width="66" height="42" viewBox="0 0 66 42" fill="none" xmlns="http://www.w3.org/2000/svg">
<path d="M61.6859 5.88027C57.8347 6.21191 52.7718 11.5835 47.8907 14.6718C41.9032 18.4569 32.5877 15.4138 32.5859 15.4138C34.0223 14.4721 39.8644 12.5292 41.0418 11.8085C47.2938 7.9653 46.7616 -0.0411416 43.7844 0.0243248C39.8522 0.116435 37.5406 1.46509 29.689 2.95991C23.7386 4.08959 16.7022 3.67623 13.3262 5.4763C8.56123 8.01833 0.888672 25.1185 0.888672 25.1185L12.7567 41.1771C12.7567 41.1771 20.1022 31.0737 23.676 31.0737C31.82 31.0737 32.1467 30.9202 39.7092 30.3472C42.9277 30.1066 43.5987 29.9222 45.4366 29.0564C55.2411 24.4276 65.7656 12.1014 65.9593 10.6177C66.4098 7.18351 63.7173 5.70315 61.6859 5.88027Z" fill="#216900"/>
</svg>
