<svg xmlns="http://www.w3.org/2000/svg" width="70" height="71" viewBox="0 0 70 71" fill="none">
  <path d="M52.5004 21.6696C52.3254 21.6405 52.1212 21.6405 51.9462 21.6696C47.9212 21.5238 44.7129 18.228 44.7129 14.1446C44.7129 9.9738 48.0671 6.61963 52.2379 6.61963C56.4087 6.61963 59.7629 10.003 59.7629 14.1446C59.7337 18.228 56.5254 21.5238 52.5004 21.6696Z" stroke="#585858" stroke-width="4" stroke-linecap="round" stroke-linejoin="round"/>
  <path d="M49.4977 42.9025C53.4935 43.5733 57.8977 42.8733 60.9893 40.8025C65.1018 38.0608 65.1018 33.5691 60.9893 30.8275C57.8685 28.7566 53.406 28.0566 49.4102 28.7566" stroke="#585858" stroke-width="4" stroke-linecap="round" stroke-linejoin="round"/>
  <path d="M17.4148 21.6696C17.5898 21.6405 17.794 21.6405 17.969 21.6696C21.994 21.5238 25.2023 18.228 25.2023 14.1446C25.2023 9.9738 21.8482 6.61963 17.6773 6.61963C13.5065 6.61963 10.1523 10.003 10.1523 14.1446C10.1815 18.228 13.3898 21.5238 17.4148 21.6696Z" stroke="#585858" stroke-width="4" stroke-linecap="round" stroke-linejoin="round"/>
  <path d="M20.4178 42.9025C16.422 43.5733 12.0178 42.8733 8.92617 40.8025C4.81367 38.0608 4.81367 33.5691 8.92617 30.8275C12.047 28.7566 16.5095 28.0566 20.5053 28.7566" stroke="#585858" stroke-width="4" stroke-linecap="round" stroke-linejoin="round"/>
  <path d="M35.0004 43.4567C34.8254 43.4276 34.6212 43.4276 34.4462 43.4567C30.4212 43.3109 27.2129 40.0151 27.2129 35.9317C27.2129 31.7609 30.5671 28.4067 34.7379 28.4067C38.9087 28.4067 42.2629 31.7901 42.2629 35.9317C42.2337 40.0151 39.0254 43.3401 35.0004 43.4567Z" stroke="#585858" stroke-width="4" stroke-linecap="round" stroke-linejoin="round"/>
  <path d="M26.5121 52.6444C22.3996 55.3861 22.3996 59.8778 26.5121 62.6194C31.1788 65.7403 38.8204 65.7403 43.4871 62.6194C47.5996 59.8778 47.5996 55.3861 43.4871 52.6444C38.8496 49.5528 31.1788 49.5528 26.5121 52.6444Z" stroke="#585858" stroke-width="4" stroke-linecap="round" stroke-linejoin="round"/>
</svg>