<svg xmlns="http://www.w3.org/2000/svg" width="74" height="75" viewBox="0 0 74 75" fill="none">
  <path d="M45.75 15.0361H28.25M72 20.2861V55.2861C72 69.2861 67.625 72.7861 50.125 72.7861H23.875C6.375 72.7861 2 69.2861 2 55.2861V20.2861C2 6.28613 6.375 2.78613 23.875 2.78613H50.125C67.625 2.78613 72 6.28613 72 20.2861Z" stroke="#585858" stroke-width="4" stroke-linecap="round" stroke-linejoin="round"/>
  <path d="M37 62.6361C38.7985 62.6361 40.5233 62.0646 41.7951 61.0472C43.0668 60.0298 43.7813 58.6499 43.7813 57.2111C43.7813 55.7723 43.0668 54.3925 41.7951 53.3751C40.5233 52.3577 38.7985 51.7861 37 51.7861C35.2015 51.7861 33.4767 52.3577 32.2049 53.3751C30.9332 54.3925 30.2188 55.7723 30.2188 57.2111C30.2188 58.6499 30.9332 60.0298 32.2049 61.0472C33.4767 62.0646 35.2015 62.6361 37 62.6361Z" stroke="#585858" stroke-width="4" stroke-linecap="round" stroke-linejoin="round"/>
</svg>